# Blender 3.5.1
# www.blender.org
mtllib Bookshelf.mtl
o bookshelf
v -0.310792 -1.628531 -0.163873
v 0.339208 -1.628531 -0.163873
v -0.310792 0.411469 -0.163873
v 0.339208 0.411469 -0.163873
v 0.312667 -1.628531 -0.163873
v -0.284250 -1.628531 -0.163873
v -0.284250 0.411469 -0.163873
v 0.312667 0.411469 -0.163873
v -0.284250 -1.528531 0.176127
v 0.312667 -1.528531 0.176127
v -0.284250 -1.198531 0.176127
v 0.312667 -1.198531 0.176127
v -0.284250 -1.168524 0.176127
v 0.312667 -1.168524 0.176127
v -0.284250 -0.838523 0.176127
v 0.312667 -0.838523 0.176127
v -0.284250 -0.808536 0.176127
v 0.312667 -0.808536 0.176127
v -0.284250 -0.478530 0.176127
v 0.312667 -0.478530 0.176127
v -0.284250 -0.448530 0.176127
v 0.312667 -0.448530 0.176127
v -0.284250 -0.118526 0.176127
v 0.312667 -0.118526 0.176127
v -0.284250 -0.088541 0.176127
v 0.312667 -0.088541 0.176127
v -0.284250 0.241474 0.176127
v 0.312667 0.241474 0.176127
v -0.284250 0.271464 0.176127
v 0.312667 0.271464 0.176127
v -0.310792 -1.528531 -0.163873
v -0.310792 -1.198529 -0.163873
v -0.310792 -1.168559 -0.163873
v -0.310792 -0.838528 -0.163873
v -0.310792 -0.808512 -0.163873
v -0.310792 -0.478482 -0.163873
v -0.310792 -0.448520 -0.163873
v -0.310792 -0.118515 -0.163873
v -0.310792 -0.088496 -0.163873
v -0.310792 0.241452 -0.163873
v -0.310792 0.271476 -0.163873
v 0.339208 0.271483 -0.163873
v 0.339208 0.241466 -0.163873
v 0.339208 -0.088524 -0.163873
v 0.339208 -0.118567 -0.163873
v 0.339208 -0.448543 -0.163873
v 0.339208 -0.478583 -0.163873
v 0.339208 -0.808529 -0.163873
v 0.339208 -0.838565 -0.163873
v 0.339208 -1.168532 -0.163873
v 0.339208 -1.198533 -0.163873
v 0.339208 -1.528531 -0.163873
v 0.312667 -1.628531 0.176127
v 0.339208 -1.628531 0.176127
v 0.339208 -1.528531 0.176127
v 0.339208 -1.198532 0.176127
v 0.339208 -1.168532 0.176127
v 0.339208 -0.838565 0.176127
v 0.339208 -0.808529 0.176127
v 0.339208 -0.478583 0.176127
v 0.339208 -0.448543 0.176127
v 0.339208 -0.118567 0.176127
v 0.339208 -0.088524 0.176127
v 0.339208 0.241466 0.176127
v 0.339208 0.271483 0.176127
v 0.339208 0.411469 0.176127
v 0.312667 0.411469 0.176127
v -0.284250 0.411469 0.176127
v -0.310792 0.411469 0.176127
v -0.310792 0.271476 0.176127
v -0.310792 0.241452 0.176127
v -0.310792 -0.088496 0.176127
v -0.310792 -0.118515 0.176127
v -0.310792 -0.448520 0.176127
v -0.310792 -0.478482 0.176127
v -0.310792 -0.808512 0.176127
v -0.310792 -0.838528 0.176127
v -0.310792 -1.168559 0.176127
v -0.310792 -1.198529 0.176127
v -0.310792 -1.528531 0.176127
v -0.310792 -1.628531 0.176127
v -0.284250 -1.628531 0.176127
v -0.284250 0.271476 -0.163873
v 0.312667 0.271483 -0.163873
v -0.284250 0.241453 -0.163873
v 0.312667 0.241466 -0.163873
v -0.284250 -0.088497 -0.163873
v 0.312666 -0.088523 -0.163873
v -0.284250 -0.118517 -0.163873
v 0.312666 -0.118564 -0.163873
v -0.284250 -0.448521 -0.163873
v 0.312666 -0.448542 -0.163873
v -0.284250 -0.478486 -0.163873
v 0.312666 -0.478579 -0.163873
v -0.284250 -0.808513 -0.163873
v 0.312666 -0.808528 -0.163873
v -0.284250 -0.838530 -0.163873
v 0.312666 -0.838564 -0.163873
v -0.284250 -1.168558 -0.163873
v 0.312666 -1.168533 -0.163873
v -0.284250 -1.198529 -0.163873
v 0.312667 -1.198532 -0.163873
v -0.284250 -1.528531 -0.163873
v 0.312667 -1.528531 -0.163873
vn -0.0000 -0.0000 1.0000
vn -0.0000 -1.0000 -0.0000
vn 1.0000 -0.0000 -0.0000
vn -0.0000 1.0000 -0.0000
vn -1.0000 -0.0000 -0.0000
vn -0.0000 -0.0000 -1.0000
vn -0.0000 1.0000 0.0001
vn -0.0001 -1.0000 -0.0000
vn -0.0000 -1.0000 0.0001
vn -0.0000 1.0000 -0.0001
vt 0.048799 0.047966
vt 0.963718 0.044895
vt 0.048886 0.962334
vt 0.963511 0.959262
vt 0.964040 0.032930
vt 0.975511 0.044895
vt 0.608846 0.066899
vt 0.048720 0.036045
vt 0.036981 0.047966
vt 0.394853 0.066899
vt 0.048893 0.974228
vt 0.036981 0.962334
vt 0.365470 0.962314
vt 0.963213 0.971098
vt 0.975511 0.959262
vt 0.648383 0.958958
vt 0.213169 0.092811
vt 0.394853 0.224639
vt 0.608846 0.224639
vt 0.799299 0.090076
vt 0.592831 0.500223
vt 0.213169 0.240678
vt 0.408335 0.500223
vt 0.799299 0.237270
vt 0.213169 0.254173
vt 0.592831 0.490949
vt 0.408335 0.490949
vt 0.799299 0.251438
vt 0.596611 0.850709
vt 0.213169 0.402040
vt 0.412114 0.850708
vt 0.799299 0.398633
vt 0.213169 0.415526
vt 0.596611 0.841440
vt 0.412114 0.841440
vt 0.799299 0.412791
vt 0.594179 0.500600
vt 0.213169 0.563396
vt 0.408421 0.500595
vt 0.799299 0.559989
vt 0.213169 0.576888
vt 0.594180 0.491517
vt 0.408422 0.491516
vt 0.799299 0.574153
vt 0.596789 0.850380
vt 0.213169 0.724757
vt 0.411028 0.850377
vt 0.799299 0.721349
vt 0.213169 0.738242
vt 0.596790 0.841303
vt 0.411030 0.841301
vt 0.799299 0.735507
vt 0.596903 0.849915
vt 0.213169 0.886116
vt 0.412406 0.849915
vt 0.799299 0.882709
vt 0.213169 0.899590
vt 0.596903 0.840645
vt 0.412406 0.840646
vt 0.799299 0.896661
vt 0.048878 0.092788
vt 0.048878 0.240701
vt 0.048878 0.254134
vt 0.048878 0.402060
vt 0.048878 0.415514
vt 0.048878 0.563440
vt 0.048878 0.576870
vt 0.048878 0.724784
vt 0.048878 0.738240
vt 0.048878 0.886129
vt 0.048878 0.899586
vt 0.963608 0.896518
vt 0.963608 0.883064
vt 0.963608 0.735155
vt 0.963608 0.721690
vt 0.963608 0.573788
vt 0.963608 0.560324
vt 0.963608 0.412436
vt 0.963608 0.398973
vt 0.963608 0.251075
vt 0.963608 0.237628
vt 0.963608 0.089717
vt 0.799299 0.044895
vt 0.810769 0.032930
vt 0.608846 0.188789
vt 0.811092 0.044895
vt 0.811202 0.089717
vt 0.811202 0.237628
vt 0.811202 0.251075
vt 0.811202 0.398973
vt 0.811202 0.412436
vt 0.811202 0.560324
vt 0.811202 0.573788
vt 0.811202 0.721690
vt 0.811202 0.735155
vt 0.811202 0.883064
vt 0.811202 0.896518
vt 0.811299 0.959262
vt 0.811597 0.971098
vt 0.799299 0.959110
vt 0.201257 0.974228
vt 0.213169 0.962324
vt 0.201265 0.962334
vt 0.201272 0.899586
vt 0.201273 0.886129
vt 0.201273 0.738240
vt 0.201273 0.724784
vt 0.201273 0.576870
vt 0.201273 0.563440
vt 0.201273 0.415514
vt 0.201273 0.402060
vt 0.201273 0.254134
vt 0.201273 0.240701
vt 0.201273 0.092788
vt 0.201351 0.047966
vt 0.213169 0.047966
vt 0.201430 0.036045
vt 0.394853 0.188789
vt 0.596903 0.964283
vt 0.036981 0.899586
vt 0.365470 0.899606
vt 0.596903 0.735557
vt 0.412406 0.964281
vt 0.975511 0.896518
vt 0.412406 0.735557
vt 0.648383 0.896822
vt 0.036981 0.886129
vt 0.596903 0.955003
vt 0.365470 0.886083
vt 0.975511 0.883064
vt 0.412406 0.955004
vt 0.648383 0.882346
vt 0.596783 0.965156
vt 0.036981 0.738239
vt 0.365470 0.738284
vt 0.596791 0.735623
vt 0.411025 0.965141
vt 0.975511 0.735156
vt 0.411032 0.735621
vt 0.648383 0.735874
vt 0.036981 0.724783
vt 0.596784 0.955936
vt 0.365470 0.724738
vt 0.975511 0.721691
vt 0.411026 0.955925
vt 0.648383 0.720974
vt 0.594172 0.615360
vt 0.036981 0.576869
vt 0.365470 0.576915
vt 0.594181 0.385839
vt 0.408416 0.615353
vt 0.975511 0.573789
vt 0.408424 0.385837
vt 0.648383 0.574506
vt 0.036981 0.563438
vt 0.594172 0.606156
vt 0.365470 0.563393
vt 0.975511 0.560326
vt 0.408417 0.606140
vt 0.648383 0.559608
vt 0.596610 0.965077
vt 0.036981 0.415514
vt 0.365470 0.415560
vt 0.596611 0.736352
vt 0.412114 0.965078
vt 0.975511 0.412436
vt 0.412114 0.736352
vt 0.648383 0.413154
vt 0.036981 0.402060
vt 0.596609 0.955799
vt 0.365470 0.402014
vt 0.975511 0.398973
vt 0.412113 0.955795
vt 0.648383 0.398256
vt 0.592831 0.614575
vt 0.036981 0.254135
vt 0.365470 0.254180
vt 0.592831 0.385861
vt 0.408335 0.614583
vt 0.975511 0.251075
vt 0.408335 0.385861
vt 0.648383 0.251792
vt 0.036981 0.240701
vt 0.592831 0.605311
vt 0.365470 0.240656
vt 0.975511 0.237628
vt 0.408335 0.605311
vt 0.648383 0.236911
vt 0.036981 0.092788
vt 0.394853 0.031049
vt 0.365470 0.092833
vt 0.394853 0.346528
vt 0.975511 0.089717
vt 0.608846 0.031049
vt 0.608846 0.346528
vt 0.648383 0.090434
s 1
usemtl Material_#3
f 53/85/1 10/19/1 9/18/1 82/118/1
f 54/86/1 55/87/1 10/20/1 53/83/1
f 68/102/1 69/103/1 70/104/1 29/57/1
f 14/27/1 13/26/1 11/21/1 12/23/1
f 18/35/1 17/34/1 15/29/1 16/31/1
f 22/43/1 21/42/1 19/37/1 20/39/1
f 26/51/1 25/50/1 23/45/1 24/47/1
f 30/59/1 29/58/1 27/53/1 28/55/1
f 81/115/1 82/116/1 9/17/1 80/114/1
f 80/114/1 9/17/1 11/22/1 79/113/1
f 78/112/1 79/113/1 11/22/1 13/25/1
f 77/111/1 78/112/1 13/25/1 15/30/1
f 77/111/1 15/30/1 17/33/1 76/110/1
f 76/110/1 17/33/1 19/38/1 75/109/1
f 75/109/1 19/38/1 21/41/1 74/108/1
f 74/108/1 21/41/1 23/46/1 73/107/1
f 73/107/1 23/46/1 25/49/1 72/106/1
f 72/106/1 25/49/1 27/54/1 71/105/1
f 70/104/1 71/105/1 27/54/1 29/57/1
f 65/97/1 66/98/1 67/100/1 30/60/1
f 64/96/1 65/97/1 30/60/1 28/56/1
f 64/96/1 28/56/1 26/52/1 63/95/1
f 63/95/1 26/52/1 24/48/1 62/94/1
f 62/94/1 24/48/1 22/44/1 61/93/1
f 61/93/1 22/44/1 20/40/1 60/92/1
f 60/92/1 20/40/1 18/36/1 59/91/1
f 59/91/1 18/36/1 16/32/1 58/90/1
f 58/90/1 16/32/1 14/28/1 57/89/1
f 57/89/1 14/28/1 12/24/1 56/88/1
f 56/88/1 12/24/1 10/20/1 55/87/1
f 5/5/2 2/2/2 54/86/2 53/84/2
f 2/2/3 52/82/3 55/87/3 54/86/3
f 52/82/3 51/81/3 56/88/3 55/87/3
f 51/81/3 50/80/3 57/89/3 56/88/3
f 50/80/3 49/79/3 58/90/3 57/89/3
f 49/79/3 48/78/3 59/91/3 58/90/3
f 48/78/3 47/77/3 60/92/3 59/91/3
f 47/77/3 46/76/3 61/93/3 60/92/3
f 46/76/3 45/75/3 62/94/3 61/93/3
f 45/75/3 44/74/3 63/95/3 62/94/3
f 44/74/3 43/73/3 64/96/3 63/95/3
f 43/73/3 42/72/3 65/97/3 64/96/3
f 42/72/3 4/4/3 66/98/3 65/97/3
f 4/4/4 8/14/4 67/99/4 66/98/4
f 7/11/4 3/3/4 69/103/4 68/101/4
f 3/3/5 41/71/5 70/104/5 69/103/5
f 41/71/5 40/70/5 71/105/5 70/104/5
f 40/70/5 39/69/5 72/106/5 71/105/5
f 39/69/5 38/68/5 73/107/5 72/106/5
f 38/68/5 37/67/5 74/108/5 73/107/5
f 37/67/5 36/66/5 75/109/5 74/108/5
f 36/66/5 35/65/5 76/110/5 75/109/5
f 35/65/5 34/64/5 77/111/5 76/110/5
f 34/64/5 33/63/5 78/112/5 77/111/5
f 33/63/5 32/62/5 79/113/5 78/112/5
f 32/62/5 31/61/5 80/114/5 79/113/5
f 31/61/5 1/1/5 81/115/5 80/114/5
f 1/1/2 6/8/2 82/117/2 81/115/2
f 6/10/2 5/7/2 53/85/2 82/118/2
f 5/6/6 104/193/6 52/82/6 2/2/6
f 3/3/6 7/12/6 83/120/6 41/71/6
f 84/123/6 86/131/6 85/128/6 83/119/6
f 88/137/6 90/145/6 89/142/6 87/133/6
f 92/151/6 94/159/6 93/156/6 91/147/6
f 96/165/6 98/173/6 97/170/6 95/161/6
f 100/179/6 102/187/6 101/184/6 99/175/6
f 42/72/6 43/73/6 86/130/6 84/124/6
f 40/70/6 41/71/6 83/120/6 85/127/6
f 43/73/6 44/74/6 88/138/6 86/130/6
f 39/69/6 40/70/6 85/127/6 87/134/6
f 44/74/6 45/75/6 90/144/6 88/138/6
f 38/68/6 39/69/6 87/134/6 89/141/6
f 45/75/6 46/76/6 92/152/6 90/144/6
f 37/67/6 38/68/6 89/141/6 91/148/6
f 46/76/6 47/77/6 94/158/6 92/152/6
f 36/66/6 37/67/6 91/148/6 93/155/6
f 47/77/6 48/78/6 96/166/6 94/158/6
f 35/65/6 36/66/6 93/155/6 95/162/6
f 48/78/6 49/79/6 98/172/6 96/166/6
f 34/64/6 35/65/6 95/162/6 97/169/6
f 49/79/6 50/80/6 100/180/6 98/172/6
f 33/63/6 34/64/6 97/169/6 99/176/6
f 50/80/6 51/81/6 102/186/6 100/180/6
f 32/62/6 33/63/6 99/176/6 101/183/6
f 51/81/6 52/82/6 104/193/6 102/186/6
f 31/61/6 32/62/6 101/183/6 103/189/6
f 4/4/6 42/72/6 84/124/6 8/15/6
f 1/1/6 31/61/6 103/189/6 6/9/6
f 5/7/6 6/10/6 103/190/6 104/194/6
f 86/131/2 28/55/2 27/53/2 85/128/2
f 85/129/3 27/54/3 25/49/3 87/135/3
f 87/136/7 25/50/7 26/51/7 88/139/7
f 88/140/5 26/52/5 28/56/5 86/132/5
f 90/145/2 24/47/2 23/45/2 89/142/2
f 89/143/3 23/46/3 21/41/3 91/149/3
f 91/150/4 21/42/4 22/43/4 92/153/4
f 92/154/5 22/44/5 24/48/5 90/146/5
f 94/159/8 20/39/8 19/37/8 93/156/8
f 93/157/3 19/38/3 17/33/3 95/163/3
f 95/164/4 17/34/4 18/35/4 96/167/4
f 96/168/5 18/36/5 20/40/5 94/160/5
f 98/173/9 16/31/9 15/29/9 97/170/9
f 97/171/3 15/30/3 13/25/3 99/177/3
f 99/178/10 13/26/10 14/27/10 100/181/10
f 100/182/5 14/28/5 16/32/5 98/174/5
f 102/187/2 12/23/2 11/21/2 101/184/2
f 101/185/3 11/22/3 9/17/3 103/191/3
f 103/192/4 9/18/4 10/19/4 104/195/4
f 104/196/5 10/20/5 12/24/5 102/188/5
f 83/121/3 7/13/3 68/102/3 29/57/3
f 30/59/4 84/125/4 83/122/4 29/58/4
f 67/100/5 8/16/5 84/126/5 30/60/5
